<?xml version="1.0" encoding="UTF-8" standalone="no"?><!DOCTYPE svg PUBLIC "-//W3C//DTD SVG 1.1//EN" "http://www.w3.org/Graphics/SVG/1.1/DTD/svg11.dtd"><svg width="100%" height="100%" viewBox="0 0 650 400" version="1.1" xmlns="http://www.w3.org/2000/svg" xmlns:xlink="http://www.w3.org/1999/xlink" xml:space="preserve" style="fill-rule:evenodd;clip-rule:evenodd;stroke-linecap:round;stroke-linejoin:round;stroke-miterlimit:1.5;"><rect x="0" y="0" width="650" height="400" style="fill:#fff;"/><path d="M218,106.703c0,-25.224 20.479,-45.703 45.703,-45.703l136.594,0c25.224,0 45.703,20.479 45.703,45.703l0,196.594c0,25.224 -20.479,45.703 -45.703,45.703l-136.594,0c-25.224,0 -45.703,-20.479 -45.703,-45.703l0,-196.594Z" style="fill:#fff;stroke:#172f2f;stroke-width:10px;"/><g><path d="M211,101.703c0,-25.224 20.479,-45.703 45.703,-45.703l136.594,0c25.224,0 45.703,20.479 45.703,45.703l0,196.594c0,25.224 -20.479,45.703 -45.703,45.703l-136.594,0c-25.224,0 -45.703,-20.479 -45.703,-45.703l0,-196.594Z" style="fill:#fff;stroke:#16cfd4;stroke-width:10px;"/><path d="M262,111l80,0" style="fill:#fff;stroke:#16cfd4;stroke-width:12px;"/><path d="M262,154l127,0" style="fill:#fff;stroke:#16cfd4;stroke-width:12px;"/><path d="M262,193l106,0" style="fill:#fff;stroke:#16cfd4;stroke-width:12px;"/><path d="M262,236l127,0" style="fill:#fff;stroke:#16cfd4;stroke-width:12px;"/><path d="M262,275l80,0" style="fill:#fff;stroke:#16cfd4;stroke-width:12px;"/></g></svg>