<?xml version="1.0" encoding="utf-8"?>
<!-- Generator: Adobe Illustrator 16.0.3, SVG Export Plug-In . SVG Version: 6.00 Build 0)  -->
<!DOCTYPE svg PUBLIC "-//W3C//DTD SVG 1.1//EN" "http://www.w3.org/Graphics/SVG/1.1/DTD/svg11.dtd">
<svg version="1.1" id="Layer_1" xmlns="http://www.w3.org/2000/svg" xmlns:xlink="http://www.w3.org/1999/xlink" x="0px" y="0px"
	 width="347.29px" height="346.25px" viewBox="0 0 347.29 346.25" enable-background="new 0 0 347.29 346.25" xml:space="preserve">
<polygon fill="#3D3D3D" points="347.29,345.66 309.2,332.91 174.459,287.83 45.6,330.939 40.32,332.71 2.68,345.35 0,346.25 
	17.5,315.72 84.85,180.66 109.9,193.148 57.99,297.279 167.42,260.66 174.459,258.3 181.51,260.66 292.06,297.648 239.959,193.148 
	265.01,180.66 334.76,320.54 335.241,321.5 346.93,344.95 "/>
<path fill="#3D3D3D" d="M244.44,139.11l-12.62-25.3L190.7,31.37L175.049,0L175,0.1l-56.86,114.06l-12.62,25.3l-16.79,33.68
	l25.05,12.5l18.55-37.21l35.09,11.74l7.04,2.36l7.051-2.36l36.119-12.09l18.791,37.699l25.06-12.5L244.44,139.11z M174.47,133
	h-0.011l-29.509-9.87l30.13-60.44l29.939,60.09L174.47,133z"/>
<line fill="#3D3D3D" x1="347.29" y1="345.66" x2="309.18" y2="332.91"/>
</svg>
